<svg width="700" height="700" viewBox="0 0 700 700" fill="none" xmlns="http://www.w3.org/2000/svg">
<path d="M383.335 220.938L432.401 170H112V220.938H383.335Z" fill="black"/>
<path d="M395.254 349.441L570.548 170.666L500.741 170.666L356.39 316.504L395.254 349.441Z" fill="black"/>
<path d="M388.074 403.536L347.148 444.462L351.327 454.405C369.981 498.788 413.875 530 465.097 530C533.229 530 588.461 474.768 588.461 406.636C588.461 361.48 563.814 322.422 528.019 300.977L517.205 294.497L479.731 332.45L498.847 342.542C521.878 354.699 537.517 378.855 537.517 406.636C537.517 446.634 505.093 479.058 465.097 479.058C432.798 479.058 405.399 457.903 396.078 428.654L388.074 403.536Z" fill="black"/>
<path d="M286.153 519.862V261.486H235.215V519.862H286.153Z" fill="black"/>
</svg>
