<svg width="477" height="360" viewBox="0 0 477 360" fill="none" xmlns="http://www.w3.org/2000/svg">
<path d="M271.335 50.938L320.401 0H0V50.938H271.335Z" fill="black"/>
<path d="M283.254 179.441L458.548 0.666273L388.741 0.665863L244.39 146.504L283.254 179.441Z" fill="black"/>
<path d="M276.074 233.536L235.148 274.462L239.327 284.405C257.981 328.788 301.875 360 353.097 360C421.229 360 476.461 304.768 476.461 236.636C476.461 191.48 451.814 152.422 416.019 130.977L405.205 124.497L367.731 162.45L386.847 172.542C409.878 184.699 425.517 208.855 425.517 236.636C425.517 276.634 393.093 309.058 353.097 309.058C320.798 309.058 293.399 287.903 284.078 258.654L276.074 233.536Z" fill="black"/>
<path d="M174.153 349.862V91.4859H123.215V349.862H174.153Z" fill="black"/>
</svg>
